<svg width="60" height="60" viewBox="0 0 60 60" fill="none" xmlns="http://www.w3.org/2000/svg">
<g clip-path="url(#clip0_1082_38)">
<circle cx="30" cy="30" r="29.5" stroke="#41C6FF"/>
<path d="M31.0791 7.86C31.0791 8.45647 30.5956 8.94 29.9991 8.94C29.4026 8.94 28.9191 8.45647 28.9191 7.86L28.9191 4.08C28.9191 3.48353 29.4026 3 29.9991 3C30.5956 3 31.0791 3.48353 31.0791 4.08L31.0791 7.86Z" fill="#41C6FF"/>
<path d="M31.0791 55.9201C31.0791 56.5165 30.5956 57.0001 29.9991 57.0001C29.4026 57.0001 28.9191 56.5165 28.9191 55.9201L28.9191 52.1401C28.9191 51.5436 29.4026 51.0601 29.9991 51.0601C30.5956 51.0601 31.0791 51.5436 31.0791 52.1401L31.0791 55.9201Z" fill="#41C6FF"/>
<path d="M52.139 31.0801C51.5426 31.0801 51.059 30.5965 51.059 30.0001C51.059 29.4036 51.5426 28.9201 52.139 28.9201L55.919 28.9201C56.5155 28.9201 56.999 29.4036 56.999 30.0001C56.999 30.5965 56.5155 31.0801 55.919 31.0801L52.139 31.0801Z" fill="#41C6FF"/>
<path d="M4.07945 31.0801C3.48299 31.0801 2.99945 30.5965 2.99945 30.0001C2.99945 29.4036 3.48299 28.9201 4.07945 28.9201L7.85945 28.9201C8.45592 28.9201 8.93945 29.4036 8.93945 30.0001C8.93945 30.5965 8.45592 31.0801 7.85945 31.0801L4.07945 31.0801Z" fill="#41C6FF"/>
<path d="M15.1074 13.5811C15.5292 14.0028 15.5292 14.6867 15.1074 15.1084C14.6857 15.5302 14.0019 15.5302 13.5801 15.1084L10.9072 12.4356C10.4855 12.0138 10.4855 11.33 10.9072 10.9082C11.329 10.4864 12.0128 10.4864 12.4346 10.9082L15.1074 13.5811Z" fill="#41C6FF"/>
<path d="M49.0908 47.5645C49.5126 47.9862 49.5126 48.6701 49.0908 49.0918C48.6691 49.5136 47.9853 49.5136 47.5635 49.0918L44.8906 46.419C44.4689 45.9972 44.4689 45.3134 44.8906 44.8916C45.3124 44.4698 45.9962 44.4698 46.418 44.8916L49.0908 47.5645Z" fill="#41C6FF"/>
<path d="M46.418 15.1084C45.9962 15.5302 45.3124 15.5302 44.8906 15.1084C44.4688 14.6866 44.4688 14.0028 44.8906 13.5811L47.5635 10.9082C47.9852 10.4864 48.6691 10.4864 49.0908 10.9082C49.5126 11.33 49.5126 12.0138 49.0908 12.4356L46.418 15.1084Z" fill="#41C6FF"/>
<path d="M12.4346 49.0918C12.0128 49.5136 11.329 49.5136 10.9072 49.0918C10.4854 48.67 10.4854 47.9862 10.9072 47.5645L13.5801 44.8916C14.0018 44.4698 14.6857 44.4698 15.1074 44.8916C15.5292 45.3134 15.5292 45.9972 15.1074 46.4189L12.4346 49.0918Z" fill="#41C6FF"/>
<path d="M19.8646 10.2863C20.1628 10.8028 19.9858 11.4634 19.4693 11.7616C18.9527 12.0598 18.2922 11.8828 17.994 11.3663L16.104 8.0927C15.8057 7.57614 15.9827 6.91563 16.4993 6.61739C17.0158 6.31916 17.6763 6.49614 17.9746 7.0127L19.8646 10.2863Z" fill="#41C6FF"/>
<path d="M43.8948 51.9074C44.1931 52.4239 44.0161 53.0844 43.4995 53.3827C42.983 53.6809 42.3225 53.5039 42.0242 52.9874L40.1342 49.7138C39.836 49.1972 40.013 48.5367 40.5295 48.2385C41.0461 47.9403 41.7066 48.1172 42.0048 48.6338L43.8948 51.9074Z" fill="#41C6FF"/>
<path d="M49.713 19.8653C49.1964 20.1635 48.5359 19.9866 48.2377 19.47C47.9394 18.9534 48.1164 18.2929 48.633 17.9947L51.9066 16.1047C52.4231 15.8065 53.0836 15.9834 53.3819 16.5C53.6801 17.0166 53.5031 17.6771 52.9866 17.9753L49.713 19.8653Z" fill="#41C6FF"/>
<path d="M8.0919 43.8953C7.57534 44.1936 6.91482 44.0166 6.61659 43.5C6.31836 42.9835 6.49534 42.323 7.0119 42.0247L10.2855 40.1347C10.802 39.8365 11.4625 40.0135 11.7608 40.53C12.059 41.0466 11.882 41.7071 11.3655 42.0053L8.0919 43.8953Z" fill="#41C6FF"/>
<path d="M8.89264 23.2266C9.46878 23.381 9.81069 23.9732 9.65632 24.5493C9.50194 25.1255 8.90974 25.4674 8.33359 25.313L4.68239 24.3347C4.10625 24.1803 3.76434 23.5881 3.91872 23.0119C4.07309 22.4358 4.6653 22.0939 5.24144 22.2483L8.89264 23.2266Z" fill="#41C6FF"/>
<path d="M55.3155 35.6656C55.8916 35.82 56.2335 36.4122 56.0792 36.9883C55.9248 37.5644 55.3326 37.9064 54.7564 37.752L51.1052 36.7736C50.5291 36.6193 50.1872 36.0271 50.3416 35.4509C50.4959 34.8748 51.0882 34.5329 51.6643 34.6872L55.3155 35.6656Z" fill="#41C6FF"/>
<path d="M36.7724 8.89411C36.618 9.47025 36.0258 9.81216 35.4497 9.65778C34.8735 9.5034 34.5316 8.9112 34.686 8.33506L35.6643 4.68386C35.8187 4.10771 36.4109 3.76581 36.9871 3.92018C37.5632 4.07456 37.9051 4.66676 37.7507 5.24291L36.7724 8.89411Z" fill="#41C6FF"/>
<path d="M24.3339 55.3165C24.1796 55.8926 23.5874 56.2345 23.0112 56.0801C22.4351 55.9258 22.0932 55.3336 22.2475 54.7574L23.2259 51.1062C23.3802 50.5301 23.9725 50.1882 24.5486 50.3425C25.1247 50.4969 25.4666 51.0891 25.3123 51.6653L24.3339 55.3165Z" fill="#41C6FF"/>
<path d="M25.3116 8.33502C25.4659 8.91117 25.124 9.50337 24.5479 9.65775C23.9718 9.81213 23.3795 9.47022 23.2252 8.89407L22.2468 5.24287C22.0925 4.66673 22.4344 4.07453 23.0105 3.92015C23.5867 3.76577 24.1789 4.10768 24.3332 4.68382L25.3116 8.33502Z" fill="#41C6FF"/>
<path d="M37.751 54.7574C37.9054 55.3335 37.5635 55.9257 36.9873 56.0801C36.4112 56.2345 35.819 55.8926 35.6646 55.3164L34.6863 51.6652C34.5319 51.0891 34.8738 50.4969 35.45 50.3425C36.0261 50.1881 36.6183 50.53 36.7727 51.1062L37.751 54.7574Z" fill="#41C6FF"/>
<path d="M51.664 25.313C51.0879 25.4674 50.4957 25.1255 50.3413 24.5494C50.1869 23.9732 50.5288 23.381 51.1049 23.2266L54.7561 22.2483C55.3323 22.0939 55.9245 22.4358 56.0789 23.012C56.2333 23.5881 55.8913 24.1803 55.3152 24.3347L51.664 25.313Z" fill="#41C6FF"/>
<path d="M5.24212 37.752C4.66598 37.9064 4.07378 37.5645 3.9194 36.9883C3.76502 36.4122 4.10693 35.82 4.68307 35.6656L8.33427 34.6873C8.91042 34.5329 9.50262 34.8748 9.657 35.4509C9.81138 36.0271 9.46947 36.6193 8.89332 36.7737L5.24212 37.752Z" fill="#41C6FF"/>
<path d="M11.3651 17.9947C11.8817 18.2929 12.0587 18.9534 11.7604 19.47C11.4622 19.9866 10.8017 20.1635 10.2851 19.8653L7.01156 17.9753C6.495 17.6771 6.31802 17.0166 6.61625 16.5C6.91448 15.9834 7.575 15.8065 8.09156 16.1047L11.3651 17.9947Z" fill="#41C6FF"/>
<path d="M52.9862 42.0247C53.5028 42.323 53.6798 42.9835 53.3815 43.5C53.0833 44.0166 52.4228 44.1936 51.9062 43.8953L48.6327 42.0053C48.1161 41.7071 47.9391 41.0466 48.2373 40.53C48.5356 40.0135 49.1961 39.8365 49.7127 40.1347L52.9862 42.0247Z" fill="#41C6FF"/>
<path d="M42.0046 11.3661C41.7063 11.8827 41.0458 12.0597 40.5293 11.7614C40.0127 11.4632 39.8357 10.8027 40.134 10.2861L42.024 7.01253C42.3222 6.49598 42.9827 6.31899 43.4993 6.61723C44.0158 6.91546 44.1928 7.57598 43.8946 8.09253L42.0046 11.3661Z" fill="#41C6FF"/>
<path d="M17.9743 52.9872C17.6761 53.5038 17.0155 53.6807 16.499 53.3825C15.9824 53.0843 15.8054 52.4238 16.1037 51.9072L17.9937 48.6336C18.2919 48.1171 18.9524 47.9401 19.469 48.2383C19.9855 48.5366 20.1625 49.1971 19.8643 49.7136L17.9743 52.9872Z" fill="#41C6FF"/>
<mask id="mask0_1082_38" style="mask-type:alpha" maskUnits="userSpaceOnUse" x="10" y="10" width="40" height="40">
<circle cx="29.9986" cy="30.0001" r="19.44" fill="#41C6FF"/>
</mask>
<g mask="url(#mask0_1082_38)">
<circle cx="24.598" cy="37.5599" r="9.18" fill="#41C6FF"/>
<circle cx="23.5182" cy="19.7401" r="5.4" fill="#41C6FF"/>
<circle cx="33.2379" cy="11.64" r="5.4" fill="#41C6FF"/>
<path d="M47.4689 40.5299C47.4689 43.5122 45.0513 45.9299 42.0689 45.9299C39.0866 45.9299 36.6689 43.5122 36.6689 40.5299C36.6689 37.5475 39.0866 35.1299 42.0689 35.1299C45.0513 35.1299 47.4689 37.5475 47.4689 40.5299Z" fill="#41C6FF"/>
<circle cx="12.1784" cy="26.2199" r="4.32" fill="#41C6FF"/>
<circle cx="39.4482" cy="25.4099" r="7.29" fill="#41C6FF"/>
</g>
</g>
<defs>
<clipPath id="clip0_1082_38">
<rect width="60" height="60" fill="white"/>
</clipPath>
</defs>
</svg>
