<svg width="60" height="60" viewBox="0 0 60 60" fill="none" xmlns="http://www.w3.org/2000/svg">
<g clip-path="url(#clip0_1082_48)">
<circle cx="30" cy="30" r="29.5" stroke="#7093FF"/>
<path d="M32.16 55.3993C32.16 56.2546 31.5025 56.9717 30.6475 56.9922C30.4323 56.9974 30.2164 57 30 57C28.1362 57 26.3166 56.8111 24.5592 56.4514C22.5259 56.0352 22.9869 53.76 25.0624 53.76H30.5207C31.426 53.76 32.16 54.494 32.16 55.3993ZM36.48 6.33504C36.48 5.03674 37.7002 4.08137 38.9253 4.51115C39.1477 4.58919 39.3689 4.67006 39.5886 4.75371C40.3316 5.03646 40.8 5.76235 40.8 6.55728V53.4422C40.8 54.2371 40.3316 54.963 39.5886 55.2458C39.3689 55.3294 39.1477 55.4103 38.9253 55.4883C37.7002 55.9181 36.48 54.9627 36.48 53.6644V6.33504ZM45.12 11.3971C45.12 9.79319 46.8936 8.87674 48.084 9.9518C48.3513 10.1933 48.6139 10.44 48.8714 10.6919C49.2416 11.0538 49.44 11.5538 49.44 12.0716V47.9279C49.44 48.4457 49.2416 48.9456 48.8714 49.3076C48.6139 49.5594 48.3514 49.8062 48.084 50.0477C46.8937 51.1227 45.12 50.2062 45.12 48.6023V11.3971ZM32.16 47.44C32.16 48.5446 31.2646 49.44 30.16 49.44H12.0716C11.5538 49.44 11.0538 49.2416 10.6919 48.8714C10.4401 48.6139 10.1935 48.3515 9.95214 48.0842C8.87719 46.8937 9.79376 45.12 11.3977 45.12H30.16C31.2646 45.12 32.16 46.0154 32.16 47.12V47.44ZM53.76 25.0624C53.76 22.9869 56.0352 22.5259 56.4514 24.5592C56.8111 26.3166 57 28.1362 57 30C57 31.8635 56.8111 33.6828 56.4515 35.44C56.0353 37.4733 53.76 37.0123 53.76 34.9368V25.0624ZM32.16 38.8C32.16 39.9046 31.2646 40.8 30.16 40.8H6.5578C5.76287 40.8 5.03698 40.3316 4.75423 39.5886C4.67059 39.3689 4.58972 39.1477 4.51168 38.9253C4.0819 37.7002 5.03728 36.48 6.33558 36.48H30.16C31.2646 36.48 32.16 37.3754 32.16 38.48V38.8ZM32.16 30.16C32.16 31.2646 31.2646 32.16 30.16 32.16H4.93338C3.89001 32.16 3.01381 31.3576 3.00181 30.3143C3.0006 30.2097 3 30.1049 3 30C3 29.8951 3.0006 29.7903 3.00181 29.6857C3.01381 28.6424 3.89001 27.84 4.93338 27.84H30.16C31.2646 27.84 32.16 28.7354 32.16 29.84V30.16ZM32.16 21.52C32.16 22.6246 31.2646 23.52 30.16 23.52H6.33558C5.03728 23.52 4.0819 22.2998 4.51168 21.0747C4.58972 20.8523 4.67059 20.6311 4.75423 20.4114C5.03698 19.6684 5.76287 19.2 6.5578 19.2H30.16C31.2646 19.2 32.16 20.0954 32.16 21.2V21.52ZM32.16 12.88C32.16 13.9846 31.2646 14.88 30.16 14.88H11.3977C9.79376 14.88 8.87719 13.1063 9.95214 11.9158C10.1935 11.6485 10.4401 11.3861 10.6919 11.1286C11.0538 10.7584 11.5538 10.56 12.0716 10.56H30.16C31.2646 10.56 32.16 11.4554 32.16 12.56V12.88ZM30 3C30.2164 3 30.4321 3.00257 30.6472 3.00767C31.5024 3.02793 32.16 3.74503 32.16 4.60039C32.16 5.50592 31.4259 6.24 30.5204 6.24H25.0624C22.9869 6.24 22.5259 3.96477 24.5592 3.54861C26.3166 3.18892 28.1362 3 30 3Z" fill="#7093FF"/>
</g>
<defs>
<clipPath id="clip0_1082_48">
<rect width="60" height="60" fill="white"/>
</clipPath>
</defs>
</svg>
